<mxfile host="app.diagrams.net" modified="2020-06-26T04:10:09.844Z" agent="5.0 (Macintosh; Intel Mac OS X 10_14_1) AppleWebKit/537.36 (KHTML, like Gecko) Chrome/70.0.3538.102 Safari/537.36" etag="MYG6RtcKyxUOywh6Ud_C" version="13.3.5" type="github">
  <diagram id="XvlaHEwwfjw_2vCmy_B2" name="Page-1">
    <mxGraphModel dx="786" dy="447" grid="1" gridSize="10" guides="1" tooltips="1" connect="1" arrows="1" fold="1" page="1" pageScale="1" pageWidth="827" pageHeight="1169" math="0" shadow="0">
      <root>
        <mxCell id="0" />
        <mxCell id="1" parent="0" />
        <mxCell id="jHE4Ej7_gTCj9Dpt6j67-4" value="" style="edgeStyle=orthogonalEdgeStyle;rounded=0;orthogonalLoop=1;jettySize=auto;html=1;" edge="1" parent="1" source="jHE4Ej7_gTCj9Dpt6j67-1">
          <mxGeometry relative="1" as="geometry">
            <mxPoint x="235" y="260" as="targetPoint" />
          </mxGeometry>
        </mxCell>
        <mxCell id="jHE4Ej7_gTCj9Dpt6j67-1" value="客户端" style="ellipse;whiteSpace=wrap;html=1;" vertex="1" parent="1">
          <mxGeometry x="180" y="110" width="110" height="70" as="geometry" />
        </mxCell>
        <mxCell id="jHE4Ej7_gTCj9Dpt6j67-6" style="edgeStyle=orthogonalEdgeStyle;rounded=0;orthogonalLoop=1;jettySize=auto;html=1;exitX=0.5;exitY=1;exitDx=0;exitDy=0;entryX=0.5;entryY=0;entryDx=0;entryDy=0;" edge="1" parent="1" source="jHE4Ej7_gTCj9Dpt6j67-2" target="jHE4Ej7_gTCj9Dpt6j67-5">
          <mxGeometry relative="1" as="geometry" />
        </mxCell>
        <mxCell id="jHE4Ej7_gTCj9Dpt6j67-2" value="是否登录" style="rhombus;whiteSpace=wrap;html=1;" vertex="1" parent="1">
          <mxGeometry x="195" y="260" width="80" height="80" as="geometry" />
        </mxCell>
        <mxCell id="jHE4Ej7_gTCj9Dpt6j67-8" style="edgeStyle=orthogonalEdgeStyle;rounded=0;orthogonalLoop=1;jettySize=auto;html=1;exitX=0.5;exitY=1;exitDx=0;exitDy=0;entryX=0.5;entryY=0;entryDx=0;entryDy=0;" edge="1" parent="1" source="jHE4Ej7_gTCj9Dpt6j67-5" target="jHE4Ej7_gTCj9Dpt6j67-7">
          <mxGeometry relative="1" as="geometry" />
        </mxCell>
        <mxCell id="jHE4Ej7_gTCj9Dpt6j67-5" value="处理逻辑" style="rounded=0;whiteSpace=wrap;html=1;" vertex="1" parent="1">
          <mxGeometry x="175" y="390" width="120" height="60" as="geometry" />
        </mxCell>
        <mxCell id="jHE4Ej7_gTCj9Dpt6j67-7" value="返回" style="rounded=1;whiteSpace=wrap;html=1;" vertex="1" parent="1">
          <mxGeometry x="175" y="500" width="120" height="60" as="geometry" />
        </mxCell>
      </root>
    </mxGraphModel>
  </diagram>
</mxfile>
